PathFileType	4	(X/Y/Z)	D:\TRACE\v60_Jaco2_6-2-23\JustBodyDRS_Motion3_7-v60.trc
DataRate	CameraRate	NumFrames	NumMarkers	Units	OrigDataRate	OrigDataStartFrame	OrigNumFrames
100.00	100.00	      24	9	mm	100.00	2626	      7000
Frame#	Time	front left toe			Front right toe			aft left toe			aft right toe			Arm			FL body			FR body			AL Body			AR Body			
		X1	Y1	Z1	X2	Y2	Z2	X3	Y3	Z3	X4	Y4	Z4	X5	Y5	Z5	X6	Y6	Z6	X7	Y7	Z7	X8	Y8	Z8	X9	Y9	Z9	

2626	26.250	-166.56010	170.59929	-256.85419	216.06281	51.42994	-278.14215	-138.58159	-20.02035	357.36115	234.55835	102.53936	346.11597	57.00234	1205.42798	-270.11661	-60.00157	575.44135	-426.65326	98.45055	573.02448	-433.66214	-13.44969	505.78345	514.24713	138.42746	493.90067	506.29105	
2627	26.260	-166.05287	164.14174	-257.02078	216.15578	51.65044	-277.81421	-138.25659	-20.74541	357.19406	234.15546	96.16775	346.81934	57.10231	1205.57849	-269.60211	-59.82712	575.47632	-426.39270	97.88977	573.15454	-433.09381	-13.91675	505.39294	514.53479	138.04033	493.71976	506.58948	
2628	26.270	-165.76299	156.89264	-257.19678	216.12894	51.80085	-277.65442	-138.40729	-20.96938	357.20053	233.71620	88.81185	347.07480	57.23487	1205.63025	-268.67203	-59.49781	575.43848	-426.09320	98.15446	573.30182	-432.89999	-14.02904	505.08948	514.84015	137.22011	493.42520	507.04642	
2629	26.280	-165.56953	149.14256	-257.58035	216.28281	52.05137	-277.36163	-138.49908	-21.07021	357.18832	234.28226	81.53038	346.88452	56.84447	1205.83130	-268.09927	-59.33094	575.52576	-426.02911	98.65569	573.38202	-432.50250	-14.62233	504.87592	514.68341	137.18530	493.07242	507.29230	
2630	26.290	-165.94147	141.18895	-257.84778	216.53868	52.37035	-277.05878	-138.57826	-21.29710	357.26398	235.37218	73.53738	346.08008	56.61665	1206.06506	-267.50302	-58.99742	575.79962	-425.85019	98.93108	573.46027	-432.23257	-15.44460	504.44199	515.07233	136.64516	492.71478	507.48712	
2631	26.300	-165.86461	132.75172	-258.12634	216.45322	52.40965	-276.97482	-139.16209	-21.03600	357.49515	234.54541	64.49906	345.73926	56.45694	1206.22668	-266.93094	-58.89838	576.02142	-425.65536	99.29848	573.60052	-431.82880	-15.87638	503.99072	514.98218	136.20900	492.14597	507.63678	
2632	26.310	-165.70764	123.72856	-258.41956	216.72348	52.61816	-276.74435	-139.28036	-21.25755	357.54868	235.02647	56.01052	345.27753	56.49889	1206.31274	-266.13824	-58.65509	576.20959	-425.54471	99.95013	573.89636	-431.88760	-16.26562	503.34549	515.15344	135.60442	491.59930	507.84329	
2633	26.320	-165.30011	114.57166	-258.26605	216.92577	52.78061	-276.55164	-139.04726	-21.83354	357.45154	234.44124	47.03344	345.28696	56.95744	1206.17542	-265.58441	-58.35744	576.33923	-425.43335	100.06387	574.18665	-431.70172	-16.54441	502.93073	515.25732	135.31361	491.21927	508.15643	
2634	26.330	-165.01208	105.58678	-258.05032	216.92360	52.88464	-276.42056	-139.42863	-22.19686	357.84695	233.62126	37.24378	344.72147	57.37074	1206.18689	-264.77936	-58.18112	576.77039	-425.46576	100.35734	574.53491	-431.48627	-16.63150	502.43961	515.21844	135.36201	490.99991	508.34396	
2635	26.340	-164.83780	96.66485	-257.47110	216.70285	52.83725	-276.50983	-139.64137	-22.45415	357.82785	233.73203	29.50879	345.92026	57.27111	1206.42468	-264.15512	-58.05777	576.98749	-425.35291	100.46856	574.70685	-431.37610	-16.96466	502.21362	515.49677	135.00879	490.61816	508.47632	
2636	26.350	-164.89182	88.31143	-256.60257	215.81308	52.56995	-276.82315	-139.79523	-22.60678	357.73367	233.44464	21.53695	346.09470	57.54769	1206.49707	-263.52737	-58.00390	577.16461	-425.29510	100.56876	574.96051	-431.21585	-17.17966	501.86270	515.56763	135.25456	490.41562	508.92963	
2637	26.360	-164.78523	81.12730	-256.09140	215.17067	52.34822	-277.03186	-140.27029	-22.05231	357.55096	233.39056	14.65811	346.35651	57.57549	1206.62732	-263.11697	-57.86587	577.27887	-425.21054	100.79113	574.97565	-431.02109	-18.38712	501.78622	515.86273	133.70221	489.79590	508.95261	
2638	26.370	-165.27257	75.06240	-255.68094	214.60092	52.17262	-277.22977	-140.38507	-22.23129	357.59808	233.14687	8.10589	346.52890	57.62134	1206.76843	-262.72565	-57.62073	577.31689	-425.04019	101.10838	575.10284	-430.74948	-18.53820	501.31226	516.06555	134.31442	489.51779	509.21307	
2639	26.380	-165.43678	69.28674	-255.07571	214.37576	52.15886	-277.17767	-140.51698	-22.36013	357.59094	232.77068	2.18839	347.01035	57.79621	1206.62122	-262.41019	-57.38051	577.39209	-424.83911	101.39861	575.15125	-430.52457	-18.77564	500.95578	515.91644	134.14478	489.33041	509.35385	
2640	26.390	-166.25417	63.63337	-255.10866	214.39803	52.20120	-277.08792	-140.57249	-22.39854	357.56940	232.34676	-4.80321	347.22525	57.94298	1206.63623	-262.10382	-56.98193	577.47290	-424.73840	101.66987	575.21466	-430.34958	-18.79147	500.79837	516.04010	133.80890	489.06412	509.48468	
2641	26.400	-166.84552	57.05479	-254.75981	214.69810	52.56728	-276.62750	-140.59158	-22.43599	357.60461	232.40466	-11.36738	347.58133	58.36534	1206.65881	-261.73828	-56.48296	577.53186	-424.56223	102.04575	575.27734	-430.13779	-18.82154	500.76154	516.12958	133.33020	488.92090	509.56113	
2642	26.410	-167.07173	52.68542	-255.51347	214.65692	52.62687	-276.43027	-140.63078	-22.55073	357.59277	232.61383	-18.08601	347.93665	58.56189	1206.86951	-261.61240	-56.27926	577.76007	-424.59518	102.32138	575.27307	-429.99484	-18.88933	500.67282	516.15277	133.05334	488.82294	509.69193	
2643	26.420	-168.28596	52.34914	-256.56381	214.37994	52.57628	-276.46436	-140.66905	-22.63504	357.52609	232.97612	-18.10076	346.18344	59.08238	1206.90588	-261.37341	-56.05177	578.11230	-424.37186	102.63227	575.48309	-429.81934	-18.97758	500.70340	516.21509	132.78964	488.82263	509.80475	
2644	26.430	-168.55951	51.48432	-255.98041	214.26720	52.74813	-276.22543	-140.63297	-22.44949	357.55276	233.73895	-19.78820	346.81131	59.98583	1207.23486	-261.03268	-55.74417	578.67810	-424.33215	103.01142	575.81726	-429.57315	-19.52558	501.40259	516.13831	132.79608	489.30090	509.98749	
2645	26.440	-168.11212	52.64357	-256.29236	213.71138	52.87608	-276.60449	-140.65211	-22.14027	357.48230	233.71548	-19.46541	346.65552	61.05436	1207.88269	-260.82913	-55.17104	579.14496	-424.26962	103.61389	576.35248	-429.26929	-20.05799	502.85318	516.37506	132.36792	491.08429	510.39728	
2646	26.450	-167.51390	51.68686	-255.12923	214.43680	54.80009	-276.17905	-140.16475	-20.34460	356.87924	233.57011	-19.95933	347.47101	61.95445	1208.91467	-260.96426	-54.74791	579.87427	-424.27231	103.45827	577.22858	-428.81320	-20.68453	504.09158	516.66876	131.72551	492.56378	510.83459	
2647	26.460	-167.53357	51.60578	-255.05997	211.72232	57.61895	-274.34073	-138.45538	-16.53620	358.00705	233.28082	-21.00633	348.02090	62.41652	1209.96692	-261.47610	-54.24089	580.87305	-424.36072	104.07185	577.88904	-428.72485	-20.97982	504.44016	516.70654	131.27995	492.77890	510.92957	
2648	26.470	-167.70255	51.56486	-255.72435	208.98180	63.30195	-270.77649	-135.12857	-11.88151	360.22006	233.20163	-20.92414	347.22369	62.62526	1210.32019	-261.66040	-53.34959	581.60101	-424.49271	105.26662	578.95740	-428.91336	-21.21053	503.99564	516.43958	131.09175	492.57571	510.82492	
2649	26.480	-167.55612	51.06063	-255.41640	206.54553	72.99964	-269.01874	-132.64299	-2.38911	360.79785	233.14468	-21.08448	347.41925	62.30878	1210.75610	-261.66821	-53.03921	582.40814	-424.83017	105.66553	579.51501	-429.06320	-21.74151	503.62106	515.83710	130.73820	492.26938	510.69525	
